<?xml version="1.0" standalone="no"?>
<!DOCTYPE svg PUBLIC "-//W3C//DTD SVG 20010904//EN"
 "http://www.w3.org/TR/2001/REC-SVG-20010904/DTD/svg10.dtd">
<svg version="1.0" xmlns="http://www.w3.org/2000/svg"
 width="100px" height="100px" viewBox="0 0 657.000000 595.000000"
 preserveAspectRatio="xMidYMid meet">
<metadata>
Created by potrace 1.15, written by Peter Selinger 2001-2017
</metadata>
<g transform="translate(0.000000,595.000000) scale(0.100000,-0.100000)"
fill="#006fbe" stroke="none">
<path d="M5140 5525 l0 -425 -425 0 -425 0 0 -260 0 -260 425 0 425 0 0 -425
0 -425 260 0 260 0 0 425 0 425 425 0 425 0 0 260 0 260 -425 0 -425 0 0 425
0 425 -260 0 -260 0 0 -425z"/>
<path d="M1210 5605 c-91 -21 -136 -40 -205 -90 -67 -48 -131 -119 -181 -202
l-34 -57 0 157 0 157 -305 0 -305 0 0 -980 0 -980 304 0 304 0 5 523 c4 421 8
536 20 594 53 242 206 353 489 353 67 0 177 -16 246 -36 l22 -6 0 280 0 280
-22 7 c-49 15 -272 15 -338 0z"/>
<path d="M2692 5610 c-411 -58 -733 -303 -860 -654 -95 -261 -78 -584 41 -823
125 -249 306 -405 581 -502 127 -45 248 -64 406 -64 236 -1 436 59 625 186 64
43 205 178 205 195 0 6 -95 80 -211 165 l-210 153 -77 -76 c-43 -43 -100 -89
-129 -104 -192 -97 -408 -67 -552 77 -52 52 -106 145 -117 205 l-6 32 702 0
703 0 -6 173 c-14 386 -92 602 -287 797 -114 114 -222 176 -377 216 -109 29
-316 40 -431 24z m250 -457 c60 -23 130 -76 162 -121 35 -52 66 -133 66 -177
l0 -35 -391 0 -392 0 6 45 c19 138 149 264 310 300 74 17 179 12 239 -12z"/>
<path d="M5557 2935 c-190 -32 -337 -103 -452 -219 -120 -121 -167 -241 -167
-426 -1 -177 36 -276 142 -380 98 -97 211 -145 497 -210 279 -64 354 -98 373
-169 16 -60 -6 -106 -63 -131 -66 -30 -176 -42 -267 -31 -127 16 -203 54 -305
152 l-60 57 -180 -199 c-99 -110 -181 -205 -183 -213 -2 -7 23 -34 55 -60 184
-146 443 -214 778 -203 339 12 553 89 705 254 99 109 140 219 140 379 0 178
-38 283 -142 386 -108 108 -223 158 -518 224 -310 69 -371 104 -357 207 11 80
99 130 229 129 121 -1 220 -43 302 -128 l37 -38 189 189 c214 214 202 184 101
264 -106 83 -250 137 -441 166 -115 18 -307 18 -413 0z"/>
<path d="M930 2924 c-14 -2 -52 -9 -85 -15 -398 -69 -713 -350 -817 -730 -20
-74 -23 -107 -23 -274 0 -222 15 -295 90 -452 133 -274 362 -454 688 -541 95
-25 116 -27 307 -27 190 0 212 2 305 27 328 87 557 267 690 541 75 157 90 230
90 452 -1 166 -4 201 -23 274 -102 373 -384 633 -792 727 -63 14 -376 28 -430
18z m311 -550 c169 -50 278 -168 314 -341 61 -285 -81 -546 -326 -602 -57 -13
-221 -13 -278 0 -245 56 -387 316 -327 600 37 173 152 299 316 345 67 18 235
17 301 -2z"/>
<path d="M3525 2916 c-164 -44 -331 -142 -407 -239 l-33 -41 -5 124 -5 125
-282 3 -283 2 0 -1445 0 -1445 310 0 310 0 0 560 0 560 59 -58 c128 -126 313
-186 571 -185 164 1 252 21 377 88 114 60 200 131 276 226 110 137 186 306
224 497 25 126 23 356 -4 482 -81 377 -323 636 -682 732 -98 26 -351 34 -426
14z m178 -541 c203 -53 321 -205 334 -432 23 -375 -253 -600 -627 -511 -203
49 -329 230 -330 473 0 239 123 413 333 470 69 18 219 19 290 0z"/>
</g>
</svg>
